<?xml version="1.0" encoding="UTF-8"?>
<!-- Generator: Adobe Illustrator 16.0.3, SVG Export Plug-In . SVG Version: 6.00 Build 0)  -->
<!DOCTYPE svg PUBLIC "-//W3C//DTD SVG 1.1//EN" "http://www.w3.org/Graphics/SVG/1.1/DTD/svg11.dtd">
<svg version="1.1" id="Layer_1" xmlns="http://www.w3.org/2000/svg" xmlns:xlink="http://www.w3.org/1999/xlink" x="0px" y="0px" width="514.337px" height="514.334px" viewBox="0 0 514.337 514.334" enable-background="new 0 0 514.337 514.334" xml:space="preserve">
<g>
	<polygon fill="none" stroke="#3E3B00" stroke-width="2.6734" stroke-miterlimit="10" points="295.892,294.164 328.43,294.164    358.933,224.442 342.665,187.257  "/>
	<polygon fill="none" stroke="#3E3B00" stroke-width="2.6734" stroke-miterlimit="10" points="230.819,294.164 310.126,112.892    293.859,75.702 198.282,294.164  "/>
	<polygon fill="none" stroke="#3E3B00" stroke-width="2.6734" stroke-miterlimit="10" points="293.859,75.702 277.589,38.519    165.746,294.164 198.282,294.164  "/>
	<polygon fill="none" stroke="#3E3B00" stroke-width="2.6734" stroke-miterlimit="10" points="133.209,294.164 133.301,294.164    133.239,294.1  "/>
	<path fill="none" stroke="#3E3B00" stroke-width="2.6734" stroke-miterlimit="10" d="M1.337,257.166   c0,45.119,11.724,87.489,32.229,124.295V132.87C13.061,169.674,1.337,212.044,1.337,257.166z"/>
	<path fill="none" stroke="#3E3B00" stroke-width="2.6734" stroke-miterlimit="10" d="M33.566,132.87v248.591   c9.168,16.456,20.097,31.793,32.536,45.765V87.104C53.663,101.076,42.734,116.411,33.566,132.87z"/>
	<polygon fill="none" stroke="#3E3B00" stroke-width="2.6734" stroke-miterlimit="10" points="295.892,294.164 342.665,187.257    326.396,150.074 263.355,294.164  "/>
	<polygon fill="none" stroke="#3E3B00" stroke-width="2.6734" stroke-miterlimit="10" points="326.396,150.074 310.126,112.892    230.819,294.164 263.355,294.164  "/>
	<polygon fill="none" stroke="#3E3B00" stroke-width="2.6734" stroke-miterlimit="10" points="417.904,359.239 332.494,359.239    299.96,359.239 267.423,359.239 234.887,359.239 202.349,359.239 195.928,359.239 200.341,363.829 222.709,387.067    227.241,391.775 253.187,391.775 285.723,391.775 318.26,391.775 432.14,391.775  "/>
	<path fill="none" stroke="#3E3B00" stroke-width="2.6734" stroke-miterlimit="10" d="M195.928,359.239l-17.952-18.655   l-57.967,132.49c8.404,5.35,17.101,10.279,26.132,14.637l54.2-123.882L195.928,359.239z"/>
	<path fill="none" stroke="#3E3B00" stroke-width="2.6734" stroke-miterlimit="10" d="M258.55,424.312L245.08,410.31l-6.128,14.003   l-36.231,82.819c9.955,2.157,20.124,3.747,30.476,4.711l24.06-54.994l10.192-23.294L258.55,424.312z"/>
	<path fill="none" stroke="#3E3B00" stroke-width="2.6734" stroke-miterlimit="10" d="M133.301,294.164h-0.092l-2.035,4.648   L98.64,373.185l-26.494,60.558c7.275,7.617,14.973,14.82,23.133,21.495l60.327-137.896L133.301,294.164z"/>
	<path fill="none" stroke="#3E3B00" stroke-width="2.6734" stroke-miterlimit="10" d="M227.241,391.775l-4.531-4.708l-2.058,4.708   l-46.913,107.229c9.426,3.252,19.092,5.981,28.981,8.127l36.231-82.819l6.128-14.003L227.241,391.775z"/>
	<path fill="none" stroke="#3E3B00" stroke-width="2.6734" stroke-miterlimit="10" d="M200.341,363.829l-54.2,123.882   c8.916,4.302,18.146,8.035,27.598,11.294l46.913-107.229l2.058-4.708L200.341,363.829z"/>
	<path fill="none" stroke="#3E3B00" stroke-width="2.6734" stroke-miterlimit="10" d="M164.612,326.701l-9.006-9.359L95.279,455.237   c7.858,6.431,16.135,12.362,24.73,17.837l57.967-132.49L164.612,326.701z"/>
	<path fill="none" stroke="#3E3B00" stroke-width="2.6734" stroke-miterlimit="10" d="M98.64,56.451   c-11.719,9.267-22.613,19.51-32.538,30.654v340.121c1.971,2.212,3.997,4.373,6.044,6.517l26.494-60.558V56.451z"/>
	<path fill="none" stroke="#3E3B00" stroke-width="2.6734" stroke-miterlimit="10" d="M196.25,150.074V8.694   c-11.157,2.725-22.009,6.196-32.536,10.33v205.418L196.25,150.074z"/>
	<path fill="none" stroke="#3E3B00" stroke-width="2.6734" stroke-miterlimit="10" d="M228.786,75.702V2.939   c-11.075,1.222-21.932,3.164-32.536,5.754v141.38L228.786,75.702z"/>
	<path fill="none" stroke="#3E3B00" stroke-width="2.6734" stroke-miterlimit="10" d="M131.174,34.541v259.624v4.648l2.035-4.648   l0.029-0.064l30.475-69.657V19.024C152.454,23.446,141.59,28.634,131.174,34.541z"/>
	<path fill="none" stroke="#3E3B00" stroke-width="2.6734" stroke-miterlimit="10" d="M131.174,298.812v-4.648V34.541   c-11.423,6.478-22.295,13.807-32.534,21.91v316.734L131.174,298.812z"/>
	<path fill="none" stroke="#3E3B00" stroke-width="2.6734" stroke-miterlimit="10" d="M289.866,456.849v53.994   c11.079-1.413,21.948-3.483,32.536-6.271v-47.724H289.866z"/>
	<path fill="none" stroke="#3E3B00" stroke-width="2.6734" stroke-miterlimit="10" d="M289.792,456.849l-24.477,55.942   c8.292-0.261,16.477-0.919,24.55-1.948v-53.994H289.792z"/>
	<path fill="none" stroke="#3E3B00" stroke-width="2.6734" stroke-miterlimit="10" d="M261.277,1.439   c-1.371-0.021-2.73-0.102-4.106-0.102c-9.599,0-19.06,0.57-28.385,1.603v72.763L261.277,1.439z"/>
	<g>
		<path fill="none" stroke="#3E3B00" stroke-width="2.6734" stroke-miterlimit="10" d="M267.448,433.555l-10.192,23.294    l-24.06,54.994c7.897,0.735,15.886,1.154,23.975,1.154c2.731,0,5.433-0.12,8.146-0.206l24.477-55.942l0.063-0.146L267.448,433.555    z"/>
		<path fill="none" stroke="#3E3B00" stroke-width="2.6734" stroke-miterlimit="10" d="M446.374,424.312H304.027h-32.538H258.55    l8.897,9.242l22.408,23.148l-0.063,0.146h0.073h32.536h32.537h32.536h29.536c11.063-8.868,21.384-18.616,30.835-29.176    L446.374,424.312z"/>
	</g>
	<path fill="none" stroke="#3E3B00" stroke-width="2.6734" stroke-miterlimit="10" d="M387.475,477.312   c10.34-6.137,20.199-12.983,29.536-20.464h-29.536V477.312z"/>
	<path fill="none" stroke="#3E3B00" stroke-width="2.6734" stroke-miterlimit="10" d="M322.402,456.849v47.724   c11.163-2.935,22.023-6.615,32.537-10.965v-36.759H322.402z"/>
	<path fill="none" stroke="#3E3B00" stroke-width="2.6734" stroke-miterlimit="10" d="M354.939,456.849v36.759   c11.275-4.67,22.139-10.129,32.536-16.295v-20.464H354.939z"/>
	<polygon fill="none" stroke="#3E3B00" stroke-width="2.6734" stroke-miterlimit="10" points="328.43,294.164 360.965,294.164    375.202,261.629 358.933,224.442  "/>
	<polygon fill="none" stroke="#3E3B00" stroke-width="2.6734" stroke-miterlimit="10" points="389.434,294.164 375.202,261.629    360.965,294.164  "/>
	<polygon fill="none" stroke="#3E3B00" stroke-width="2.6734" stroke-miterlimit="10" points="432.14,391.775 318.26,391.775    285.723,391.775 253.187,391.775 227.241,391.775 245.08,410.31 258.55,424.312 271.489,424.312 304.027,424.312 446.374,424.312     "/>
	<polygon fill="none" stroke="#3E3B00" stroke-width="2.6734" stroke-miterlimit="10" points="389.434,294.164 360.965,294.164    328.43,294.164 295.892,294.164 263.355,294.164 230.819,294.164 198.282,294.164 165.746,294.164 133.301,294.164    155.606,317.342 164.612,326.701 184.047,326.701 216.583,326.701 249.122,326.701 281.659,326.701 314.195,326.701    346.732,326.701 403.668,326.701  "/>
	<polygon fill="none" stroke="#3E3B00" stroke-width="2.6734" stroke-miterlimit="10" points="403.668,326.701 346.732,326.701    314.195,326.701 281.659,326.701 249.122,326.701 216.583,326.701 184.047,326.701 164.612,326.701 177.976,340.584    195.928,359.239 202.349,359.239 234.887,359.239 267.423,359.239 299.96,359.239 332.494,359.239 417.904,359.239  "/>
	<path fill="none" stroke="#3E3B00" stroke-width="2.6734" stroke-miterlimit="10" d="M261.368,1.441   c-0.028,0-0.061-0.002-0.091-0.002l-32.491,74.263l-32.536,74.372l-32.536,74.369L133.239,294.1l0.062,0.064h32.444L277.589,38.519   L261.368,1.441z"/>
	<path fill="none" stroke="#3E3B00" stroke-width="2.6734" stroke-miterlimit="10" d="M407.737,187.257l-16.269-37.183   l-16.267-37.182l-16.269-37.189l-16.269-37.183l-11.495-26.272c-2.812-0.847-5.643-1.66-8.493-2.413   c-9.013-2.379-18.212-4.288-27.585-5.685l15.035,34.37l16.27,37.183l16.269,37.189l16.269,37.182l16.269,37.183l16.267,37.186   l77.254,176.582c6.923-10.156,13.126-20.837,18.55-31.971L407.737,187.257z"/>
	<path fill="none" stroke="#3E3B00" stroke-width="2.6734" stroke-miterlimit="10" d="M450.437,89.653   c-7.025-8.098-14.52-15.777-22.499-22.938c-4.018-3.603-8.176-7.057-12.416-10.402l8.482,19.389l16.268,37.189l71.874,164.281   c0.511-6.612,0.854-13.268,0.854-20.007C513,193.074,489.377,134.54,450.437,89.653z"/>
	<path fill="none" stroke="#3E3B00" stroke-width="2.6734" stroke-miterlimit="10" d="M391.468,224.442l-16.267-37.186   l-16.269-37.183l-16.269-37.182l-16.269-37.189l-16.27-37.183l-15.035-34.37c-0.774-0.115-1.56-0.185-2.333-0.296   c-10.281-1.429-20.755-2.242-31.391-2.412l16.222,37.078l16.27,37.183l16.268,37.189l16.27,37.182l16.269,37.183l16.269,37.186   l16.269,37.187l14.232,32.535l14.234,32.537l14.235,32.538l14.236,32.536l14.233,32.537l1.473,3.36   c7.521-8.407,14.506-17.3,20.876-26.648L391.468,224.442z"/>
	<path fill="none" stroke="#3E3B00" stroke-width="2.6734" stroke-miterlimit="10" d="M424.004,150.074l-16.268-37.182   l-16.269-37.189l-16.267-37.183l-4.688-10.713c-6.322-3.125-12.801-5.978-19.406-8.591c-6.522-2.579-13.163-4.921-19.938-6.969   l11.495,26.272l16.269,37.183l16.269,37.189l16.267,37.182l16.269,37.183l79.535,181.797c6.143-12.608,11.239-25.811,15.267-39.475   L424.004,150.074z"/>
	<path fill="none" stroke="#3E3B00" stroke-width="2.6734" stroke-miterlimit="10" d="M440.272,112.892l-16.268-37.189   l-8.482-19.389c-3.829-3.024-7.743-5.944-11.742-8.746c-8.206-5.751-16.735-11.064-25.61-15.835   c-2.521-1.362-5.083-2.649-7.655-3.926l4.688,10.713l16.267,37.183l16.269,37.189l16.268,37.182l78.534,179.505   c4.955-16.815,8.208-34.349,9.607-52.406L440.272,112.892z"/>
</g>
</svg>